<?xml version="1.0" encoding="UTF-8"?>
<!DOCTYPE svg PUBLIC "-//W3C//DTD SVG 1.1//EN" "http://www.w3.org/Graphics/SVG/1.1/DTD/svg11.dtd">
<!-- Creator: CorelDRAW 2019 (64-Bit) -->
<svg xmlns="http://www.w3.org/2000/svg" xml:space="preserve" width="4in" height="4in" version="1.1" style="shape-rendering:geometricPrecision; text-rendering:geometricPrecision; image-rendering:optimizeQuality; fill-rule:evenodd; clip-rule:evenodd"
viewBox="0 0 4000 4000"
 xmlns:xlink="http://www.w3.org/1999/xlink">
 <defs>
  <style type="text/css">
   <![CDATA[
    .fil6 {fill:none}
    .fil5 {fill:#22AFE1}
    .fil4 {fill:#A65BA7}
    .fil0 {fill:#E1EB7D}
    .fil3 {fill:#E55753}
    .fil1 {fill:#F7983A}
    .fil2 {fill:#FCC446}
   ]]>
  </style>
 </defs>
 <g id="Layer_x0020_1">
  <metadata id="CorelCorpID_0Corel-Layer"/>
  <polygon class="fil0" points="2676.81,1037.69 3117.73,430.81 2396.39,674.76 2654.63,1030.19 "/>
  <polygon class="fil0" points="1345.37,1030.19 1603.61,674.76 882.27,430.81 1323.19,1037.69 "/>
  <polygon class="fil1" points="893.87,1401.86 250,1400.63 791.54,1792.48 899.47,1870.59 1334.58,2185.44 1588.75,1403.2 1075.09,1402.21 "/>
  <polygon class="fil1" points="2411.25,1403.2 2665.42,2185.44 3100.53,1870.59 3208.46,1792.48 3750,1400.63 3106.13,1401.86 2924.91,1402.21 "/>
  <polygon class="fil1" points="2411.25,1403.2 2246.27,892.09 2197.79,741.92 2000,129.17 1802.21,741.92 1753.73,892.09 1588.75,1403.2 "/>
  <polygon class="fil1" points="2000,2668.89 1334.58,2185.44 1167.64,2695.91 1126.22,2822.55 918.44,3457.87 1438.62,3078.41 1585.02,2971.62 "/>
  <polygon class="fil1" points="2000,2668.89 2414.98,2971.62 2561.38,3078.41 3081.56,3457.87 2873.78,2822.55 2832.36,2695.91 2665.42,2185.44 "/>
  <polygon class="fil2" points="1802.2,741.92 2000,129.17 1603.61,674.76 1323.19,1037.69 1588.75,1403.2 1753.73,892.09 "/>
  <polygon class="fil0" points="1588.75,1403.2 1331.56,1049.2 1323.19,1037.69 891.27,1183.76 250,1400.63 893.87,1401.86 1075.09,1402.21 "/>
  <polygon class="fil2" points="1323.19,1037.69 882.27,430.81 891.27,1183.76 "/>
  <polygon class="fil3" points="2246.26,892.09 2411.25,1403.2 2676.81,1037.69 2396.39,674.76 2000,129.17 2197.79,741.92 "/>
  <polygon class="fil0" points="3106.13,1401.86 3750,1400.63 3108.73,1183.76 2676.81,1037.69 2668.44,1049.2 2411.25,1403.2 2924.91,1402.21 "/>
  <polygon class="fil3" points="2676.81,1037.69 3108.73,1183.76 3117.73,430.81 "/>
  <polygon class="fil0" points="2411.25,1403.2 1588.75,1403.2 2000,1969.23 "/>
  <polygon class="fil2" points="2000,1969.23 1588.75,1403.2 1334.58,2185.44 "/>
  <polygon class="fil3" points="2411.25,1403.2 2000,1969.23 2665.42,2185.44 "/>
  <polygon class="fil4" points="2665.42,2185.44 2000,1969.23 2000,2668.89 "/>
  <polygon class="fil5" points="2000,2668.89 2000,1969.23 1334.58,2185.44 "/>
  <polygon class="fil4" points="3342.09,1976.41 3750,1400.63 3208.46,1792.48 3100.53,1870.59 2665.42,2185.44 3095.09,2325.05 3095.09,2325.05 "/>
  <polygon class="fil3" points="3095.09,2325.05 2665.42,2185.44 2832.36,2695.91 2873.78,2822.55 3081.56,3457.87 3089.99,2752.3 3095.09,2325.06 "/>
  <polygon class="fil4" points="3095.09,2325.05 3089.99,2752.3 3750,2537.85 "/>
  <polygon class="fil3" points="3095.09,2325.05 3750,2537.84 3342.09,1976.41 "/>
  <polygon class="fil4" points="1438.62,3078.41 918.44,3457.87 1559.81,3249.48 2000,3106.45 2000,2668.89 1585.02,2971.62 "/>
  <polygon class="fil5" points="2000,2668.89 2000,3106.45 2440.19,3249.48 3081.56,3457.87 2561.38,3078.41 2414.98,2971.62 "/>
  <polygon class="fil4" points="2440.19,3249.48 2000,3106.45 2000,3870.83 "/>
  <polygon class="fil5" points="2000,3870.83 2000,3106.45 1559.81,3249.48 "/>
  <polygon class="fil5" points="904.91,2325.05 1334.58,2185.44 791.54,1792.48 250,1400.63 657.91,1976.41 904.9,2325.05 "/>
  <polygon class="fil2" points="1334.58,2185.44 904.9,2325.05 910.01,2752.3 918.44,3457.87 1126.22,2822.55 1167.64,2695.91 "/>
  <polygon class="fil2" points="904.9,2325.05 657.91,1976.41 250,2537.85 "/>
  <polygon class="fil5" points="904.91,2325.05 250,2537.85 910.01,2752.3 "/>
  <line class="fil6" x1="2000" y1="1969.23" x2="882.27" y2= "430.81" />
  <line class="fil6" x1="1334.58" y1="2185.44" x2="2000" y2= "2668.89" />
  <line class="fil6" x1="882.27" y1="430.81" x2="918.44" y2= "3457.87" />
  <line class="fil6" x1="2000" y1="1969.23" x2="250" y2= "2537.85" />
  <line class="fil6" x1="1588.75" y1="1403.2" x2="1334.58" y2= "2185.44" />
  <line class="fil6" x1="2000" y1="1969.23" x2="3117.73" y2= "430.81" />
  <line class="fil6" x1="2000" y1="129.17" x2="3750" y2= "2537.84" />
  <line class="fil6" x1="3117.73" y1="430.81" x2="3081.56" y2= "3457.87" />
  <line class="fil6" x1="2000" y1="1969.23" x2="3750" y2= "2537.85" />
  <line class="fil6" x1="3081.56" y1="3457.87" x2="250" y2= "2537.85" />
  <line class="fil6" x1="2000" y1="1969.23" x2="2000" y2= "3870.83" />
  <line class="fil6" x1="2665.42" y1="2185.44" x2="2000" y2= "2668.89" />
  <line class="fil6" x1="250" y1="1400.63" x2="2000" y2= "3870.83" />
  <line class="fil6" x1="2000" y1="3870.83" x2="3750" y2= "1400.63" />
  <line class="fil6" x1="3117.73" y1="430.81" x2="250" y2= "1400.63" />
 </g>
</svg>
