<?xml version="1.0" standalone="no"?>
<!DOCTYPE svg PUBLIC "-//W3C//DTD SVG 20010904//EN"
 "http://www.w3.org/TR/2001/REC-SVG-20010904/DTD/svg10.dtd">
<svg version="1.0" xmlns="http://www.w3.org/2000/svg"
 width="700.000000pt" height="700.000000pt" viewBox="0 0 700.000000 700.000000"
 preserveAspectRatio="xMidYMid meet">
<metadata>
Created by potrace 1.11, written by Peter Selinger 2001-2013
</metadata>
<g transform="translate(0.000000,700.000000) scale(0.100000,-0.100000)"
fill="#000000" stroke="none">
<path d="M3155 6303 c-187 -256 -342 -470 -345 -475 -4 -4 -284 87 -625 202
-340 116 -625 210 -633 210 -13 0 -14 -36 -8 -267 3 -148 7 -443 8 -657 l3
-388 -552 -187 c-303 -102 -554 -189 -558 -193 -4 -3 151 -229 344 -501 193
-272 351 -500 351 -506 0 -6 -156 -225 -346 -487 -190 -262 -348 -482 -350
-488 -3 -7 204 -79 563 -195 313 -101 571 -187 576 -190 4 -4 10 -282 14 -619
4 -372 10 -612 16 -612 8 0 1060 340 1101 356 9 3 149 -186 397 -535 210 -298
386 -541 389 -541 4 0 179 243 390 541 210 297 388 538 394 536 37 -14 1098
-357 1105 -357 4 0 11 276 15 613 4 336 10 615 14 618 4 3 262 89 575 190 312
101 567 187 567 191 0 4 -155 221 -345 482 -190 262 -348 482 -351 490 -3 9
133 209 346 511 194 273 349 499 345 503 -3 4 -255 91 -558 193 l-551 186 2
284 c1 156 5 454 8 661 l7 378 -499 -169 c-274 -93 -559 -190 -633 -215 -74
-25 -135 -45 -136 -44 -58 86 -690 948 -694 948 -4 0 -160 -210 -346 -467z"/>
</g>
</svg>
